<svg width="367" height="390" viewBox="0 0 367 390" fill="none" xmlns="http://www.w3.org/2000/svg">
<path d="M366.5 186.5H354.5C352 166 347.5 146.5 339.5 126C311.398 67.0463 251.906 29.5 186.597 29.5H183.06C174.369 29.5 165.693 30.2314 157.124 31.6865C148.059 33.2258 139.15 35.569 130.501 38.6883L125.953 40.3285C117.336 43.4361 109.028 47.3404 101.137 51.9907C90.4221 58.3048 80.5498 65.9502 71.7556 74.7445L70.9396 75.5605C61.0249 85.4751 52.4883 96.6779 45.5594 108.868L38.8876 120.605C32.3232 132.154 27.2736 144.499 23.8633 157.338C21.6251 165.764 20.1032 174.365 19.3139 183.047L19 186.5L19.1954 202.815C19.7101 245.79 37.4765 286.756 68.5 316.5L86.2465 331.378C106.447 348.314 132.918 355.817 159 352C180.911 346.845 200.188 333.872 213.215 315.516L215 313L227.61 295.863C232.184 289.647 237.546 284.052 243.561 279.219C255.961 269.255 270.802 262.793 286.543 260.503L290 260L355 260L350.897 268.293C346.64 277.415 341.625 286.164 335.905 294.448L330.139 302.799L323.191 298.933C314.609 294.157 305.081 291.327 295.283 290.643C290.878 290.336 286.454 290.465 282.075 291.028L277 291.681C268.71 293.882 260.781 297.268 253.458 301.733L252.362 302.401C246.802 305.791 241.606 309.745 236.855 314.198C230.976 319.71 225.822 325.949 221.518 332.763L217.9 338.492C212.646 346.81 208.236 355.631 204.733 364.825L198 382.5C177.092 388.054 155.041 387.091 134.385 380.664L121 376.5L116.001 374.338C94.8636 365.198 75.6762 352.086 59.4801 335.714L53.7518 329.923C43.2909 319.348 34.1812 307.518 26.6308 294.702L24.9137 291.788C8.60232 264.101 0 232.553 0 200.419V185.5L2.3059 168.48C7.62005 129.257 25.7147 92.8786 53.7892 64.9763L58.6498 60.1456C80.5128 38.4167 107.722 22.6683 137.439 14.481C171.619 5.06425 207.955 6.01582 241.571 17.2789C271.329 27.2495 297.929 44.898 318.682 68.4412L326.098 76.8548C339.557 92.1233 349.748 109.985 356.044 129.34C358.677 137.432 360.612 145.734 361.828 154.156L366.5 186.5Z" fill="#EAEAEA"/>
<path d="M262 358L257.5 349.5L265.742 344.454C276.55 337.837 286.63 330.096 295.813 321.361L302.5 315L310.255 322.763C296.543 337.454 280.168 349.411 262 358Z" fill="#EAEAEA"/>
<path d="M43 184H33.5L33.6215 182.761C35.1951 166.71 39.5531 151.055 46.5 136.5L54.5 142.5C47.9029 155.364 44.0039 168.941 43.0423 183.366L43 184Z" fill="#EAEAEA"/>
<path d="M159 55L156.5 47C161.561 45.4184 167.697 45 173 45V53C168.346 53 163.55 54.0249 159 55Z" fill="#EAEAEA"/>
<path d="M121 70.5C119.667 68 117 63.3 117 62.5C123.918 57.5583 131.651 54.1056 140 52.5L140.01 52.5219L143.5 60.5C135.591 63.1363 128.319 66.5079 121 70.5Z" fill="#EAEAEA"/>
<path d="M64.5 126L56 119C66.5387 100.557 80.9885 84.6461 98.3338 72.3847L101 70.5L107.5 81L99.2056 87.912C88.7688 96.6094 79.3501 106.46 71.1296 117.277L64.5 126Z" fill="#EAEAEA"/>
<path d="M198.959 270.145H187.144L197.199 238.4H181.614L185.384 227.391H200.97L212.031 192.83H188.904L192.674 181.31H215.801L227.868 145.725H239.934L227.365 181.31H252L247.727 192.83H224.097L212.533 227.391H234.152L230.13 238.4H209.517L198.959 270.145Z" fill="#FFA500"/>
<path d="M93.0814 181.405L89 192.84H151.496L121.906 280H140.017L197.667 110H179.556L155.577 181.405H93.0814Z" fill="#FFA500"/>
</svg>
